# xmcd
# 
# Track frame offsets:
#     150
#     18467
#     28600
#     40931
#     63988
#     78109
#     94008
#     106036
#     118066
#     133317
#     145597
#     162280
# 
# Disc length: 2499
# 
# Revision: 2
# Processed by: cddbd v1.5.2PL0 Copyright (c) Steve Scherf et al.
# Submitted via: BonkEnc v1.0.8
# 
DISCID=9409c10c
DTITLE=Pauline Reese - Trail To Monterrey
DYEAR=2002
DGENRE=Country
TTITLE0=Trail To Monterrey
TTITLE1=Tender Lovin'
TTITLE2=No Dancing
TTITLE3=Green Eyes
TTITLE4=Black Vinyl Car Seat
TTITLE5=Love Me
TTITLE6=Rodeo Man
TTITLE7=A Little Bit Different
TTITLE8=Don't Leave Me Standing Here
TTITLE9=Texas And Oklahoma
TTITLE10=Upside Down
TTITLE11=Night Life
EXTD=
EXTT0=
EXTT1=
EXTT2=
EXTT3=
EXTT4=
EXTT5=
EXTT6=
EXTT7=
EXTT8=
EXTT9=
EXTT10=
EXTT11=
PLAYORDER=
